<?xml version="1.0" encoding="UTF-8"?>
<svg xmlns="http://www.w3.org/2000/svg" id="Layer_1" viewBox="0 0 119.27 36">
  <defs>
    <style>
      .cls-1 {
        fill: #fff;
      }
    </style>
  </defs>
  <g>
    <path class="cls-1" d="M.24,35.87v-6.85h1.46v6.85H.24Z"/>
    <path class="cls-1" d="M10.8,35.87l-2.21-4.09.04,4.09h-1.44v-6.85h1.44l2.21,4.09-.04-4.09h1.44v6.85h-1.44Z"/>
    <path class="cls-1" d="M20.45,30.35v5.52h-1.46v-5.52h-1.65v-1.33h4.77v1.33h-1.66Z"/>
    <path class="cls-1" d="M31.3,32.98h-2.64v1.55h2.91v1.33h-4.37v-6.85h4.37v1.33h-2.91v1.33h2.64v1.31Z"/>
    <path class="cls-1" d="M38.3,35.87h-1.46v-6.85h2.33c1.85,0,2.45.84,2.45,2.15,0,.85-.24,1.5-.96,1.85l1.22,2.86h-1.71l-.92-2.57h-.94v2.57ZM38.3,31.98h1c.65,0,.73-.44.73-.81s-.08-.81-.73-.81h-1v1.63Z"/>
    <path class="cls-1" d="M50.52,35.87l-2.21-4.09.03,4.09h-1.44v-6.85h1.44l2.21,4.09-.03-4.09h1.44v6.85h-1.44Z"/>
    <path class="cls-1" d="M57.1,35.87l1.9-6.89h1.68l1.9,6.89h-1.55l-.32-1.41h-1.74l-.32,1.41h-1.55ZM59.26,33.3h1.17l-.59-2.6-.59,2.6Z"/>
    <path class="cls-1" d="M69.69,30.35v5.52h-1.46v-5.52h-1.65v-1.33h4.77v1.33h-1.65Z"/>
    <path class="cls-1" d="M76.53,35.87v-6.85h1.46v6.85h-1.46Z"/>
    <path class="cls-1" d="M83.42,32.44c0-2.09.58-3.55,2.73-3.55s2.73,1.46,2.73,3.55-.58,3.56-2.73,3.56-2.73-1.46-2.73-3.56ZM84.9,32.44c0,1.6.35,2.23,1.25,2.23s1.25-.63,1.25-2.23-.35-2.23-1.25-2.23-1.25.63-1.25,2.23Z"/>
    <path class="cls-1" d="M97.83,35.87l-2.21-4.09.04,4.09h-1.45v-6.85h1.45l2.21,4.09-.04-4.09h1.44v6.85h-1.44Z"/>
    <path class="cls-1" d="M104.41,35.87l1.9-6.89h1.68l1.9,6.89h-1.56l-.32-1.41h-1.74l-.32,1.41h-1.55ZM106.57,33.3h1.17l-.58-2.6-.59,2.6Z"/>
    <path class="cls-1" d="M116.49,34.54h2.77v1.33h-4.23v-6.85h1.46v5.52Z"/>
  </g>
  <g>
    <path class="cls-1" d="M48.18,13.81c-.17.03-.35.06-.54.08-.19.02-.38.05-.57.08-.18.03-.35.08-.52.13-.17.06-.32.13-.45.22-.13.09-.23.21-.31.36-.08.14-.12.33-.12.55s.04.39.12.53c.08.14.18.26.32.34.13.08.29.14.47.17.18.03.36.05.55.05.47,0,.83-.08,1.08-.23.26-.16.44-.34.57-.56.12-.22.2-.44.22-.66.03-.22.04-.4.04-.53v-.88c-.1.09-.22.16-.37.21-.15.05-.31.09-.48.12Z"/>
    <path class="cls-1" d="M85.94,13.81c-.17.03-.35.06-.54.08-.19.02-.38.05-.57.08-.18.03-.35.08-.52.13-.17.06-.32.13-.45.22-.13.09-.23.21-.31.36-.08.14-.12.33-.12.55s.04.39.12.53c.08.14.18.26.32.34.13.08.29.14.47.17.18.03.36.05.55.05.47,0,.83-.08,1.08-.23.26-.16.44-.34.57-.56.12-.22.2-.44.22-.66.03-.22.04-.4.04-.53v-.88c-.1.09-.22.16-.37.21-.15.05-.31.09-.48.12Z"/>
    <path class="cls-1" d="M56.76,10.63c-.38,0-.69.06-.94.19-.25.13-.45.29-.6.47-.15.19-.26.39-.32.6-.06.21-.1.4-.11.57h3.85c-.11-.6-.31-1.05-.59-1.37-.28-.31-.71-.47-1.29-.47Z"/>
    <path class="cls-1" d="M75.82,12.4h-2.85v3.26h2.8c.26,0,.5-.03.73-.07.23-.05.44-.13.62-.25.18-.12.32-.27.42-.47.11-.2.16-.46.16-.77,0-.61-.17-1.05-.52-1.31-.34-.26-.8-.39-1.36-.39Z"/>
    <path class="cls-1" d="M0,0v23.33h119.27V0H0ZM19.38,17.69h-2.45v-8.42h-.03l-2.91,8.42h-2.01l-2.91-8.34h-.03v8.34h-2.45V5.81h3.68l2.78,8.17h.03l2.63-8.17h3.68v11.88ZM23.46,17.69h-2.36v-8.61h2.36v8.61ZM23.46,7.75h-2.36v-1.95h2.36v1.95ZM31.8,17.01c-.73.6-1.67.9-2.81.9-.64,0-1.24-.11-1.77-.32-.54-.22-1-.52-1.37-.91-.38-.39-.67-.85-.88-1.39-.21-.54-.32-1.13-.32-1.77s.1-1.28.29-1.86c.19-.57.48-1.07.86-1.48.38-.42.84-.74,1.38-.97.54-.23,1.17-.35,1.86-.35.51,0,1,.07,1.47.2.47.13.89.34,1.27.61.37.27.67.61.91,1.02.23.41.37.89.4,1.44h-2.31c-.16-.99-.74-1.48-1.75-1.48-.38,0-.69.09-.95.26-.26.17-.46.39-.62.67-.16.27-.27.57-.34.9-.07.33-.1.65-.1.97s.03.63.1.95c.07.32.17.61.33.87.15.26.35.47.61.64.26.17.57.25.93.25.57,0,1-.16,1.31-.47.3-.32.5-.74.57-1.27h2.28c-.16,1.14-.6,2.01-1.33,2.61ZM42.22,17.69h-2.36v-4.86c0-.71-.11-1.24-.33-1.59s-.62-.52-1.18-.52c-.64,0-1.11.19-1.4.57-.29.38-.43,1.01-.43,1.89v4.51h-2.36V5.81h2.36v4.48h.05c.3-.5.68-.86,1.15-1.09.47-.23.92-.34,1.36-.34.63,0,1.15.09,1.56.26.4.17.72.41.96.72.23.31.4.68.49,1.12.09.44.14.92.14,1.46v5.29ZM49.3,17.69c-.04-.13-.08-.27-.11-.41-.03-.14-.05-.28-.06-.42-.38.39-.82.66-1.33.82-.51.16-1.03.23-1.56.23-.41,0-.79-.05-1.15-.15-.36-.1-.67-.26-.93-.47-.27-.21-.47-.48-.62-.8-.15-.32-.23-.7-.23-1.15,0-.49.09-.89.26-1.21.17-.32.39-.57.67-.76.27-.19.58-.33.93-.42.35-.09.7-.17,1.06-.22.36-.06.7-.1,1.05-.13.34-.03.65-.08.92-.15.27-.07.48-.16.63-.29.16-.13.23-.31.22-.56,0-.26-.04-.46-.12-.61-.08-.15-.19-.27-.33-.35-.14-.08-.3-.14-.48-.17-.18-.03-.38-.04-.59-.04-.47,0-.83.1-1.1.3-.27.2-.42.53-.47,1h-2.36c.03-.55.17-1.02.42-1.38.24-.37.56-.66.93-.88.38-.22.8-.38,1.27-.47.47-.09.95-.14,1.42-.14.43,0,.87.03,1.32.09.44.06.85.18,1.22.36.37.18.67.42.9.74.23.32.35.74.35,1.26v4.48c0,.39.02.76.07,1.12.04.36.12.62.23.8h-2.4ZM55.38,15.63c.36.34.87.52,1.53.52.48,0,.89-.12,1.23-.36.34-.24.55-.49.63-.76h2.08c-.33,1.03-.84,1.77-1.53,2.21-.69.44-1.52.67-2.5.67-.68,0-1.29-.11-1.83-.32-.54-.22-1-.52-1.38-.92-.38-.4-.67-.88-.87-1.43-.21-.55-.31-1.17-.31-1.83s.11-1.24.32-1.8c.21-.55.51-1.03.9-1.44.39-.41.85-.72,1.39-.96.54-.23,1.13-.35,1.79-.35.73,0,1.37.14,1.91.42.54.28.99.66,1.34,1.14.35.48.6,1.02.76,1.63.16.61.21,1.25.17,1.91h-6.21c.03.77.23,1.32.58,1.66ZM64.45,17.69h-2.36V5.81h2.36v11.88ZM79.97,15.8c-.23.44-.55.8-.94,1.07-.39.28-.84.48-1.35.62-.5.13-1.02.2-1.56.2h-5.76V5.81h5.59c.57,0,1.08.05,1.55.15.47.1.87.26,1.2.49.33.23.59.53.77.91.18.38.27.84.27,1.4,0,.6-.14,1.1-.41,1.5-.27.4-.67.73-1.21.98.73.21,1.28.58,1.64,1.11.36.53.54,1.16.54,1.91,0,.6-.12,1.12-.35,1.56ZM87.07,17.69c-.04-.13-.08-.27-.11-.41-.03-.14-.05-.28-.06-.42-.38.39-.82.66-1.33.82-.51.16-1.03.23-1.56.23-.41,0-.79-.05-1.15-.15-.36-.1-.67-.26-.93-.47-.27-.21-.47-.48-.62-.8-.15-.32-.23-.7-.23-1.15,0-.49.09-.89.26-1.21.17-.32.39-.57.67-.76.27-.19.58-.33.93-.42.35-.09.7-.17,1.06-.22.36-.06.7-.1,1.05-.13.34-.03.65-.08.92-.15.27-.07.48-.16.63-.29.16-.13.23-.31.22-.56,0-.26-.04-.46-.12-.61-.08-.15-.19-.27-.33-.35-.14-.08-.3-.14-.48-.17-.18-.03-.38-.04-.59-.04-.47,0-.83.1-1.1.3-.27.2-.42.53-.47,1h-2.36c.03-.55.17-1.02.42-1.38.24-.37.56-.66.93-.88.38-.22.8-.38,1.27-.47.47-.09.95-.14,1.42-.14.43,0,.87.03,1.32.09.44.06.85.18,1.22.36.37.18.67.42.9.74.23.32.35.74.35,1.26v4.48c0,.39.02.76.07,1.12.04.36.12.62.23.8h-2.4ZM96.42,17.69l-2.36-3.85-.92.88v2.96h-2.36V5.81h2.36v6.38l2.98-3.1h2.8l-3.25,3.16,3.61,5.44h-2.86ZM101.87,15.63c.36.34.87.52,1.53.52.48,0,.89-.12,1.23-.36.34-.24.55-.49.63-.76h2.08c-.33,1.03-.84,1.77-1.53,2.21-.69.44-1.52.67-2.5.67-.68,0-1.29-.11-1.83-.32-.54-.22-1-.52-1.38-.92-.38-.4-.67-.88-.87-1.43-.21-.55-.31-1.17-.31-1.83s.11-1.24.32-1.8c.21-.55.51-1.03.9-1.44.39-.41.85-.72,1.39-.96.54-.23,1.13-.35,1.79-.35.73,0,1.37.14,1.91.42.54.28.99.66,1.34,1.14.35.48.6,1.02.76,1.63.16.61.21,1.25.17,1.91h-6.21c.03.77.23,1.32.58,1.66ZM114.1,11.13c-.11-.02-.24-.04-.4-.06-.16-.02-.3-.02-.45-.02-.43,0-.8.07-1.1.22-.3.14-.54.34-.72.59-.18.25-.31.54-.39.87-.08.33-.12.69-.12,1.08v3.88h-2.36v-8.61h2.25v1.6h.03c.11-.27.26-.51.45-.74.19-.23.4-.42.65-.58.24-.16.5-.29.78-.37.28-.09.57-.13.87-.13.16,0,.33.03.52.08v2.2Z"/>
    <path class="cls-1" d="M76.77,10.28c.3-.22.45-.58.45-1.08,0-.28-.05-.5-.15-.68-.1-.18-.23-.32-.4-.42-.17-.1-.36-.17-.57-.21-.22-.04-.44-.06-.67-.06h-2.45v2.78h2.65c.47,0,.85-.11,1.15-.33Z"/>
    <path class="cls-1" d="M103.25,10.63c-.38,0-.69.06-.94.19-.25.13-.45.29-.6.47-.15.19-.26.39-.32.6-.06.21-.1.4-.11.57h3.85c-.11-.6-.31-1.05-.59-1.37-.28-.31-.71-.47-1.29-.47Z"/>
  </g>
</svg>
